<?xml version="1.0" encoding="UTF-8" standalone="no"?>
<svg
   xmlns:dc="http://purl.org/dc/elements/1.1/"
   xmlns:cc="http://creativecommons.org/ns#"
   xmlns:rdf="http://www.w3.org/1999/02/22-rdf-syntax-ns#"
   xmlns:svg="http://www.w3.org/2000/svg"
   xmlns="http://www.w3.org/2000/svg"
   xmlns:sodipodi="http://sodipodi.sourceforge.net/DTD/sodipodi-0.dtd"
   xmlns:inkscape="http://www.inkscape.org/namespaces/inkscape"
   width="100mm"
   height="100mm"
   viewBox="0 0 100 100"
   version="1.1"
   id="svg8"
   sodipodi:docname="bcn.gps.art.icon.svg"
   inkscape:version="1.0.1 (c497b03c, 2020-09-10)"
   inkscape:export-filename="/Users/david/Documents/CurriÌculum Vitae/deportes/gps-art/bcn.gps.art.icon-v.png"
   inkscape:export-xdpi="260.10001"
   inkscape:export-ydpi="260.10001">
  <defs
     id="defs2" />
  <sodipodi:namedview
     id="base"
     pagecolor="#ffffff"
     bordercolor="#666666"
     borderopacity="1.0"
     inkscape:pageopacity="0.0"
     inkscape:pageshadow="2"
     inkscape:zoom="1.1936685"
     inkscape:cx="266.52707"
     inkscape:cy="139.83949"
     inkscape:document-units="mm"
     inkscape:current-layer="svg8"
     inkscape:document-rotation="0"
     showgrid="false"
     inkscape:snap-global="false"
     fit-margin-top="0"
     fit-margin-left="0"
     fit-margin-right="0"
     fit-margin-bottom="0"
     inkscape:window-width="1524"
     inkscape:window-height="1121"
     inkscape:window-x="345"
     inkscape:window-y="31"
     inkscape:window-maximized="0" />
  <metadata
     id="metadata5">
    <rdf:RDF>
      <cc:Work
         rdf:about="">
        <dc:format>image/svg+xml</dc:format>
        <dc:type
           rdf:resource="http://purl.org/dc/dcmitype/StillImage" />
        <dc:title></dc:title>
      </cc:Work>
    </rdf:RDF>
  </metadata>
  <g
     id="g256"
     transform="matrix(1.0105688,0,0,1.0242622,-46.71915,-60.033443)"
     inkscape:export-xdpi="96"
     inkscape:export-ydpi="96">
    <path
       style="fill:#fbf7eb;stroke-width:0.264583"
       d="M 95.707634,156.24265 H 46.230549 V 107.42703 58.611401 h 49.477085 49.477086 v 48.815629 48.81562 z"
       id="path262" />
    <path
       style="fill:#f8e7b7;stroke-width:0.264583"
       d="m 77.73979,145.90933 c -2.945834,-0.0111 -4.329063,-0.13729 -5.839202,-0.53263 -1.088406,-0.28493 -2.7169,-0.8634 -3.618875,-1.28548 -0.901975,-0.42209 -2.34212,-1.24426 -3.200322,-1.82706 -0.858203,-0.58279 -2.39771,-1.95624 -3.421128,-3.05211 -1.312256,-1.40515 -2.224591,-2.71787 -3.095037,-4.45333 -0.678853,-1.35348 -1.483783,-3.46538 -1.788732,-4.69313 l -0.554453,-2.23226 -0.243059,-3.99897 0.340232,-3.19696 0.864119,-2.62704 c 0.384134,-1.16782 1.217693,-3.00964 1.828069,-4.10104 0.732005,-1.3089 1.897835,-2.77306 3.424877,-4.3013 1.273307,-1.27431 2.315104,-2.41304 2.315104,-2.53052 0,-0.11747 -0.546278,-0.62267 -1.21395,-1.12266 -0.667672,-0.49998 -1.806077,-1.62344 -2.529787,-2.49656 -0.72371,-0.87313 -1.894398,-2.77813 -2.601527,-4.233338 -0.70713,-1.455208 -1.473726,-3.502774 -1.703547,-4.550148 -0.251891,-1.147956 -0.416031,-3.144618 -0.413262,-5.027083 0.0025,-1.720827 0.179889,-3.954246 0.395057,-4.974852 0.214755,-1.018646 0.925023,-2.959804 1.578373,-4.313685 0.653351,-1.353881 1.739265,-3.178129 2.413143,-4.053884 0.673879,-0.875756 2.009532,-2.239209 2.96812,-3.029896 0.958587,-0.790688 2.820288,-1.95967 4.137112,-2.59774 1.316825,-0.638069 3.168133,-1.379393 4.114018,-1.647387 1.349608,-0.382379 2.631014,-0.48641 5.953125,-0.483306 3.260527,0.003 4.628537,0.113735 5.953126,0.481681 0.945885,0.26275 2.593742,0.881077 3.661907,1.374062 1.068163,0.492985 2.68673,1.427684 3.596818,2.077109 0.910087,0.649424 2.259787,1.84283 2.999335,2.652013 0.739547,0.809183 1.442699,1.470981 1.562558,1.470663 0.119859,-3.17e-4 1.232106,-0.986033 2.471666,-2.190479 1.695881,-1.647844 2.844512,-2.495022 4.640442,-3.422582 1.31268,-0.677974 3.27506,-1.487974 4.36084,-1.8 1.26241,-0.362786 3.09493,-0.620273 5.08291,-0.714197 1.93455,-0.0914 3.8833,-0.02247 5.15937,0.182506 1.12784,0.18116 2.98886,0.671096 4.1356,1.088745 1.14675,0.41765 2.95755,1.303205 4.02401,1.967901 1.06646,0.664695 2.62853,1.888432 3.47126,2.719415 0.84273,0.830982 2.00446,2.223968 2.5816,3.095524 0.57715,0.871555 1.43303,2.478209 1.90195,3.570341 0.46893,1.092133 1.05469,2.994561 1.30169,4.227619 0.34424,1.718471 0.41264,2.984878 0.29296,5.423958 -0.0859,1.750121 -0.33979,3.850968 -0.56426,4.668552 -0.22447,0.817583 -0.71737,2.186802 -1.09532,3.042708 -0.37796,0.855906 -1.21527,2.35137 -1.8607,3.32324 -0.64542,0.97188 -2.06268,2.59746 -3.14947,3.6124 l -1.97597,1.84534 1.57898,1.3679 c 0.86844,0.75234 2.13533,2.10333 2.81529,3.00219 0.67998,0.89886 1.69305,2.58679 2.25127,3.75095 0.55823,1.16417 1.22449,2.89058 1.48058,3.83646 0.34303,1.26699 0.4664,2.72989 0.46859,5.55625 0.002,2.3107 -0.13771,4.41519 -0.35077,5.29167 -0.19456,0.80036 -1.01087,2.81694 -1.81401,4.48129 l -1.46025,3.02608 -2.28704,2.26558 c -1.47366,1.45984 -2.99278,2.66028 -4.27142,3.37536 -1.0914,0.61038 -2.93687,1.43691 -4.10104,1.83674 l -2.11667,0.72696 -4.23333,0.10723 -4.23333,0.10722 -2.30754,-0.54814 c -1.26914,-0.30147 -3.23367,-1.01385 -4.36562,-1.58305 -1.13195,-0.5692 -2.80612,-1.59729 -3.720373,-2.28464 -0.914255,-0.68734 -2.153283,-1.83202 -2.753398,-2.54371 -0.600114,-0.7117 -1.221306,-1.28849 -1.380429,-1.28175 -0.15912,0.007 -0.646499,0.47946 -1.083061,1.0505 -0.436563,0.57103 -1.604015,1.69411 -2.594343,2.49573 -0.990325,0.80162 -2.776262,1.93694 -3.96875,2.52292 -1.192485,0.58599 -3.109936,1.30287 -4.261001,1.59306 -1.635779,0.41239 -2.935912,0.52444 -5.953125,0.51305 z m 0.902218,-12.04374 c 0.727605,-0.078 1.956179,-0.43011 2.730167,-0.78236 0.84446,-0.38432 2.09682,-1.33003 3.131516,-2.36472 0.948346,-0.94835 1.676543,-1.86743 1.618218,-2.04241 -0.05833,-0.17498 -0.395946,-0.39649 -0.750266,-0.49225 -0.354319,-0.0958 -1.489699,-0.60083 -2.523064,-1.12239 -1.033364,-0.52157 -2.558626,-1.56958 -3.389471,-2.32892 -0.830842,-0.75935 -2.035942,-2.11679 -2.677996,-3.01655 -0.642057,-0.89977 -1.60056,-2.5481 -2.13001,-3.66297 -0.52945,-1.11487 -1.115187,-2.02704 -1.301636,-2.02704 -0.186452,0 -0.991294,0.70456 -1.788542,1.56568 -0.797247,0.86112 -1.706013,2.09548 -2.019478,2.74301 -0.313466,0.64754 -0.707882,1.83499 -0.876481,2.63879 -0.23575,1.12394 -0.232223,1.79355 0.01527,2.89947 0.176998,0.79092 0.567421,1.90524 0.867604,2.47627 0.300184,0.57103 1.099955,1.61307 1.777269,2.31565 0.677315,0.70257 1.758851,1.58961 2.403413,1.97118 0.644562,0.38157 1.716125,0.84625 2.38125,1.03262 0.673261,0.18864 1.79573,0.27594 2.532235,0.19694 z m 35.046892,-0.0121 c 0.64913,-0.0822 1.81411,-0.38668 2.58884,-0.67655 0.86912,-0.32518 2.01132,-1.08503 2.98228,-1.98397 1.0484,-0.97064 1.85876,-2.03605 2.42781,-3.19195 l 0.85414,-1.73501 -0.005,-1.87884 c -0.004,-1.31732 -0.18445,-2.33417 -0.60467,-3.40232 -0.39004,-0.9914 -1.12623,-2.07715 -2.10796,-3.10885 -0.82974,-0.87197 -1.64818,-1.58539 -1.81877,-1.58539 -0.17059,0 -0.67467,0.76375 -1.12018,1.69723 -0.44551,0.93348 -1.34811,2.41306 -2.00579,3.28796 -0.65767,0.87489 -1.87682,2.21498 -2.70923,2.97798 -0.8324,0.76299 -2.28736,1.889 -3.23325,2.50224 -0.94588,0.61324 -2.16628,1.30128 -2.71198,1.52899 -0.60912,0.25417 -0.99219,0.59221 -0.99219,0.87556 0,0.25385 0.64265,1.084 1.42811,1.84477 0.78545,0.76077 1.79512,1.57302 2.2437,1.80499 0.44859,0.23197 1.44305,0.59522 2.20992,0.80722 0.81716,0.2259 1.88285,0.32356 2.57454,0.23593 z M 95.485625,118.119 c 0.678257,0.013 1.957959,-0.20192 2.843776,-0.47761 0.88582,-0.2757 2.207969,-0.88461 2.938109,-1.35314 0.73014,-0.46854 1.81855,-1.40382 2.41869,-2.07842 0.60014,-0.67461 1.43452,-1.95269 1.85418,-2.84019 0.47481,-1.00412 0.82399,-2.26651 0.92442,-3.34199 0.12555,-1.34448 0.0381,-2.13417 -0.3936,-3.55555 -0.30525,-1.00496 -1.02169,-2.47763 -1.5921,-3.27259 -0.57041,-0.79497 -1.52487,-1.836101 -2.12102,-2.313629 -0.59615,-0.477528 -1.65177,-1.150213 -2.34583,-1.494859 -0.694048,-0.344643 -1.96395,-0.76967 -2.822005,-0.944504 -1.212635,-0.247084 -1.919766,-0.247335 -3.175,-0.0011 -0.888196,0.174217 -2.267394,0.632761 -3.064886,1.018989 -0.797488,0.386226 -2.122246,1.372145 -2.943905,2.19093 -0.905475,0.902313 -1.845498,2.202803 -2.386478,3.301633 l -0.892551,1.81293 -0.364557,2.314 0.364557,2.45982 0.852385,1.7996 c 0.545854,1.15243 1.406493,2.3537 2.393206,3.34041 0.847453,0.84745 2.071222,1.81267 2.719491,2.14493 0.648269,0.33226 1.71445,0.7532 2.369294,0.93541 0.654843,0.18221 1.745564,0.34194 2.423824,0.35495 z M 73.067465,97.769734 c 0.214723,0 0.633534,-0.54963 0.930688,-1.221399 0.297156,-0.671769 1.062884,-1.951691 1.701617,-2.844271 0.638734,-0.89258 2.04969,-2.50176 3.135458,-3.575957 1.085768,-1.074195 2.676515,-2.414948 3.534993,-2.979447 0.858477,-0.564499 2.067467,-1.219832 2.68664,-1.456298 0.661162,-0.2525 1.125773,-0.600628 1.125773,-0.843528 0,-0.227476 -0.604028,-0.980683 -1.342282,-1.673793 -0.738256,-0.693111 -2.018178,-1.590563 -2.844271,-1.994338 l -1.501989,-0.734136 -2.359617,-0.446133 -2.1383,0.439133 -1.526183,0.715176 c -0.862436,0.404143 -2.162365,1.351361 -2.988989,2.177985 -0.838463,0.838463 -1.764873,2.114202 -2.170532,2.988989 l -0.707724,1.526183 -0.444969,2.122231 0.429969,2.122228 0.859878,1.746662 c 0.491218,0.997805 1.367814,2.214859 2.044609,2.838707 0.651604,0.600625 1.360415,1.092047 1.575138,1.092047 z m 44.943915,-0.281149 c 0.26159,0.0091 1.07262,-0.580438 1.8023,-1.310111 0.72967,-0.729673 1.62149,-1.970641 1.98182,-2.757705 0.36033,-0.787066 0.72439,-2.015646 0.80901,-2.730177 0.10051,-0.848645 -2.6e-4,-1.842026 -0.29064,-2.864691 -0.24447,-0.861047 -0.88377,-2.212771 -1.42065,-3.003828 -0.53689,-0.791056 -1.67496,-1.952712 -2.52905,-2.581456 -0.85409,-0.628744 -2.21476,-1.335582 -3.02371,-1.570752 -0.97603,-0.283738 -1.99405,-0.380135 -3.02615,-0.286548 -0.89344,0.08101 -2.16821,0.44089 -2.99552,0.845653 -0.79211,0.387541 -2.09507,1.303137 -2.89547,2.034658 -0.8004,0.73152 -1.45527,1.495187 -1.45527,1.697037 0,0.20185 0.8632,0.801462 1.91823,1.332476 1.05503,0.53101 2.58175,1.47574 3.39273,2.0994 0.81097,0.62366 2.36088,2.076161 3.44424,3.227781 1.28033,1.360996 2.29224,2.751487 2.89113,3.972777 0.61932,1.262954 1.0773,1.884349 1.397,1.895486 z"
       id="path260"
       sodipodi:nodetypes="csssssscccsssssssscsssssscsssssssssssssssscsssscsssscsscssscccsssscsssscsssscssssssssssssssscsssccsssssssssssscccssssscsssscssscccsssscccsssssssscccssscccssccsssscssssssssssss" />
    <path
       style="fill:#b9c6d2;stroke-width:0.264583"
       d="m 77.73979,144.32183 c -2.141842,-0.0102 -3.655973,-0.16894 -5.021281,-0.52649 -1.075114,-0.28156 -2.583442,-0.79975 -3.351841,-1.15153 -0.768399,-0.35179 -2.100358,-1.11719 -2.959909,-1.7009 -0.859551,-0.58371 -2.397649,-1.95522 -3.417996,-3.04779 -1.234216,-1.32159 -2.225472,-2.72364 -2.961469,-4.18876 -0.60846,-1.21124 -1.35751,-3.21128 -1.664555,-4.44453 l -0.558263,-2.24228 0.131191,-3.04939 c 0.10145,-2.3581 0.292532,-3.52923 0.842904,-5.16605 0.391442,-1.16417 1.184672,-2.91743 1.762734,-3.89613 0.578061,-0.97871 1.705267,-2.48614 2.504903,-3.34984 0.799635,-0.8637 2.28433,-2.13778 3.299321,-2.8313 1.01499,-0.69351 1.845437,-1.4185 1.845437,-1.6111 0,-0.1926 -0.111734,-0.35017 -0.248299,-0.35017 -0.136565,0 -1.178362,-0.70164 -2.315104,-1.55919 -1.136743,-0.85755 -2.638452,-2.25653 -3.337131,-3.10885 -0.698679,-0.85232 -1.789964,-2.621234 -2.425077,-3.930921 -0.635113,-1.309688 -1.343388,-3.238191 -1.573945,-4.285565 -0.230557,-1.047372 -0.417126,-2.952372 -0.4146,-4.233333 0.0025,-1.280959 0.180868,-3.162456 0.396314,-4.181102 0.215447,-1.018646 0.865175,-2.839432 1.443842,-4.046191 0.578667,-1.206759 1.604484,-2.911944 2.279594,-3.789301 0.675111,-0.877356 2.007773,-2.23882 2.961472,-3.025476 0.953699,-0.786655 2.696338,-1.8953 3.872529,-2.463654 1.176192,-0.568354 2.912437,-1.251386 3.858322,-1.517849 1.270514,-0.357914 2.618346,-0.483452 5.159375,-0.480547 2.469195,0.0028 3.920459,0.136548 5.144069,0.473997 0.937467,0.258535 2.466983,0.815798 3.398925,1.238361 0.931942,0.422562 2.438337,1.299128 3.347543,1.947924 0.909206,0.648796 2.272266,1.857094 3.029024,2.685108 0.756759,0.828014 1.638504,1.965405 1.959433,2.527537 0.320929,0.562131 0.712544,1.022974 0.870257,1.024095 0.157713,0.0011 0.741193,-0.657793 1.296625,-1.464254 0.555429,-0.80646 1.880066,-2.278953 2.943633,-3.272208 1.159093,-1.082465 2.762413,-2.237031 4.002283,-2.882083 1.13769,-0.59189 2.95824,-1.327371 4.04566,-1.634401 1.08742,-0.307031 3.01323,-0.629705 4.27957,-0.717054 1.38014,-0.0952 3.12891,-0.02606 4.36563,0.172596 1.13475,0.182276 2.97688,0.664165 4.09362,1.070863 1.11674,0.406699 2.85877,1.275306 3.8712,1.930238 1.01242,0.654932 2.48042,1.830439 3.26222,2.612237 0.78179,0.781799 1.88801,2.124353 2.45824,2.983454 0.57024,0.859102 1.36461,2.344351 1.76527,3.300555 0.40065,0.956204 0.93188,2.746398 1.18051,3.978208 0.31974,1.584172 0.40894,2.90498 0.30477,4.512929 -0.081,1.250299 -0.3335,2.991909 -0.5611,3.870243 -0.2276,0.878332 -0.67074,2.181265 -0.98475,2.895404 -0.31402,0.71414 -0.98578,1.949771 -1.4928,2.74585 -0.50703,0.79607 -1.63546,2.19055 -2.50764,3.09882 -0.87217,0.90828 -2.34513,2.14617 -3.27325,2.75086 -0.92811,0.60469 -1.68748,1.19315 -1.68748,1.30768 0,0.11454 0.67442,0.58887 1.49871,1.05408 0.8243,0.4652 2.34234,1.70704 3.37344,2.75964 1.0311,1.05261 2.27413,2.58492 2.7623,3.40515 0.48816,0.82023 1.18091,2.21756 1.53944,3.10518 0.35852,0.88762 0.83695,2.58769 1.06317,3.77793 0.28689,1.50949 0.36228,2.88436 0.24924,4.54533 -0.0891,1.30969 -0.33765,3.03609 -0.55226,3.83646 -0.21462,0.80036 -0.94576,2.57738 -1.62477,3.94894 l -1.23456,2.49373 -2.14829,2.16191 c -1.22591,1.23369 -2.9435,2.62723 -4.00038,3.24567 -1.01865,0.59607 -2.80458,1.40875 -3.96875,1.80596 l -2.11667,0.72221 -3.43958,0.11404 -3.43958,0.11405 -2.34493,-0.5585 c -1.28971,-0.30718 -3.26483,-1.03709 -4.38916,-1.62203 -1.12432,-0.58494 -2.81593,-1.70006 -3.75912,-2.47805 -0.943192,-0.77799 -2.242288,-2.12795 -2.886885,-2.9999 -0.644596,-0.87196 -1.319805,-1.80972 -1.500465,-2.0839 l -0.328472,-0.49851 -0.465278,0.65404 c -0.255902,0.35973 -1.06059,1.39558 -1.788194,2.3019 -0.727605,0.90633 -2.066489,2.24233 -2.975301,2.96891 -0.908812,0.72657 -2.516156,1.74463 -3.571875,2.26236 -1.055719,0.51772 -2.86127,1.17935 -4.012335,1.47028 -1.523053,0.38495 -2.927731,0.525 -5.159375,0.5144 z m 0.835872,-8.83363 c 1.605287,-0.0764 2.432013,-0.27618 3.808835,-0.92048 1.231512,-0.57629 2.282196,-1.35838 3.505931,-2.60967 0.961078,-0.98272 2.089658,-2.42319 2.507954,-3.20105 0.564687,-1.05008 0.676875,-1.46599 0.435647,-1.61508 -0.178695,-0.11044 -0.897213,-0.26858 -1.596708,-0.35143 -0.699497,-0.0828 -2.098204,-0.56679 -3.10824,-1.07543 -1.010037,-0.50865 -2.516212,-1.5461 -3.347056,-2.30544 -0.830842,-0.75934 -2.033643,-2.11357 -2.67289,-3.00939 -0.639247,-0.89583 -1.515105,-2.37485 -1.946352,-3.28672 -0.431247,-0.91187 -0.864685,-2.24398 -0.963194,-2.96024 -0.09851,-0.71626 -0.268542,-1.30229 -0.377847,-1.30229 -0.109304,0 -0.901803,0.45738 -1.761109,1.01639 -0.859306,0.55901 -2.106479,1.60255 -2.771496,2.31897 -0.665017,0.71643 -1.518045,1.83663 -1.895617,2.48935 -0.377573,0.65271 -0.875265,1.83344 -1.105983,2.62384 -0.230718,0.79039 -0.419487,2.16777 -0.419487,3.06083 0,0.89306 0.191586,2.27043 0.425747,3.06083 0.23416,0.7904 0.713085,1.92836 1.064276,2.52881 0.351192,0.60044 1.270777,1.68967 2.043523,2.4205 0.772747,0.73083 2.019743,1.6403 2.771104,2.02104 0.751359,0.38075 1.813079,0.8052 2.359375,0.94324 0.546298,0.13804 1.915911,0.20708 3.043587,0.15342 z m 34.340448,0.0995 c 0.66065,0.01 1.90189,-0.1651 2.75832,-0.38817 0.85642,-0.22307 2.13288,-0.71895 2.83657,-1.10194 0.70369,-0.383 1.87925,-1.33057 2.61234,-2.10571 0.7331,-0.77514 1.69557,-2.18435 2.13884,-3.13159 0.60307,-1.28873 0.8419,-2.24686 0.94879,-3.80639 0.11352,-1.65626 0.0292,-2.45815 -0.41053,-3.906 -0.30436,-1.00203 -0.92652,-2.38521 -1.38258,-3.07375 -0.45607,-0.68853 -1.33749,-1.69927 -1.95871,-2.24609 -0.62122,-0.54683 -1.65219,-1.25347 -2.29103,-1.57031 -0.63884,-0.31685 -1.33327,-0.61417 -1.54319,-0.66072 -0.27276,-0.0605 -0.43744,0.28151 -0.57716,1.19863 -0.10753,0.70579 -0.52138,1.92731 -0.91965,2.71449 -0.39828,0.78718 -1.36038,2.20258 -2.138,3.14532 -0.77763,0.94275 -2.2009,2.36328 -3.16283,3.15673 -0.96194,0.79344 -2.55346,1.86538 -3.53672,2.38206 -0.98325,0.51669 -2.28215,0.98397 -2.88644,1.0384 -0.60429,0.0544 -1.16967,0.16993 -1.2564,0.25666 -0.0867,0.0867 0.39806,1.04938 1.07732,2.13921 0.67926,1.08983 1.7958,2.4759 2.4812,3.08015 0.68539,0.60425 1.69274,1.32701 2.23854,1.60613 0.5458,0.27912 1.61736,0.67578 2.38125,0.88148 0.76389,0.2057 1.92942,0.38183 2.59007,0.39141 z M 95.481325,119.70649 c 1.329883,0.0156 2.605117,-0.15625 3.723251,-0.5016 0.935334,-0.28889 2.410414,-0.98404 3.277964,-1.54476 0.86754,-0.56072 2.03449,-1.54475 2.5932,-2.18672 0.55872,-0.64197 1.43491,-2.0384 1.94709,-3.10318 l 0.93123,-1.93596 0.12904,-2.46694 0.12903,-2.46693 -0.56088,-1.84657 c -0.30848,-1.01562 -1.04499,-2.57154 -1.63669,-3.45762 -0.5917,-0.886075 -1.6761,-2.088998 -2.40978,-2.673163 -0.73368,-0.584163 -1.94747,-1.349307 -2.69732,-1.700313 -0.74985,-0.35101 -1.994306,-0.770904 -2.765453,-0.933098 -0.771147,-0.162198 -1.926145,-0.294902 -2.566665,-0.294902 -0.640519,0 -1.795518,0.131172 -2.566664,0.291494 -0.771147,0.160321 -2.175288,0.666337 -3.120316,1.124479 -1.019519,0.494255 -2.325897,1.440016 -3.212569,2.325764 -0.95668,0.95568 -1.853544,2.219579 -2.49269,3.512799 l -0.998349,2.02002 -0.48171,2.70491 0.247405,2.70491 0.578043,1.70551 c 0.317924,0.93803 0.997326,2.33719 1.509784,3.10924 0.512459,0.77205 1.485596,1.89221 2.162527,2.48923 0.676934,0.59703 1.826102,1.38939 2.553706,1.7608 0.727604,0.37141 1.858698,0.82462 2.513542,1.00712 0.654843,0.1825 2.100818,0.34247 3.213274,0.35548 z M 74.300426,100.40238 c 0.298098,0.009 0.516551,-0.414147 0.748665,-1.451345 0.206576,-0.923076 0.801219,-2.17028 1.608392,-3.373438 0.704352,-1.049898 2.207111,-2.835963 3.339459,-3.96903 1.132351,-1.13307 2.70759,-2.490756 3.500531,-3.017081 0.792943,-0.526325 2.020421,-1.176845 2.727732,-1.445604 0.707313,-0.268756 1.575374,-0.488648 1.929027,-0.488648 0.353653,0 0.70625,-0.102333 0.78355,-0.227407 0.0773,-0.125074 -0.177178,-0.869214 -0.565504,-1.653646 -0.388327,-0.784431 -1.335741,-2.04439 -2.105369,-2.799908 -0.777918,-0.763657 -2.194158,-1.762363 -3.189195,-2.248958 l -1.789872,-0.875289 -3.153367,-0.442633 -2.93205,0.442633 -1.792243,0.848945 c -1.113056,0.52723 -2.345466,1.402169 -3.252096,2.308799 -0.90663,0.90663 -1.781569,2.13904 -2.308799,3.252096 l -0.848946,1.792243 -0.51038,2.778315 0.51038,3.069963 0.996391,2.016059 c 0.669849,1.355347 1.425782,2.402118 2.306613,3.194061 0.720623,0.647901 1.82006,1.425207 2.443194,1.727342 0.623133,0.302141 1.322382,0.555281 1.553887,0.562531 z m 42.228644,0.0132 c 0.0527,0 0.82163,-0.36643 1.70883,-0.814287 0.8872,-0.447858 2.20026,-1.401459 2.91792,-2.119115 0.76241,-0.762418 1.64782,-2.037794 2.12994,-3.068058 0.63282,-1.352301 0.85275,-2.240536 0.94367,-3.811269 0.0917,-1.584124 -0.008,-2.465483 -0.4412,-3.890926 -0.34231,-1.126971 -1.01036,-2.454988 -1.71969,-3.418547 -0.69823,-0.948473 -1.81834,-2.015323 -2.81401,-2.680206 -0.90974,-0.607499 -2.31177,-1.295743 -3.11562,-1.52943 -1.02681,-0.298499 -2.14826,-0.392056 -3.77008,-0.314515 l -2.30852,0.110372 -1.74548,0.859298 c -0.96002,0.472615 -2.37367,1.43405 -3.14145,2.136524 -0.76777,0.702473 -1.8377,2.025269 -2.37761,2.939546 -0.5399,0.914277 -0.91983,1.762343 -0.84428,1.884592 0.0756,0.122248 0.57683,0.222363 1.11395,0.222477 0.53711,1.14e-4 1.72713,0.35528 2.64448,0.78926 0.91734,0.433978 2.35477,1.317585 3.19428,1.963574 0.83951,0.645988 2.41068,2.115325 3.49147,3.265191 1.0841,1.153374 2.3506,2.839929 2.82499,3.761922 0.47294,0.919192 0.85989,2.051407 0.85989,2.516037 0,0.464629 0.0794,0.92415 0.17639,1.02117 0.097,0.097 0.21947,0.17639 0.27213,0.17639 z"
       id="path258"
       sodipodi:nodetypes="csssssscssssssssssscsssssscssssscsssssssssssssssssssssssscsscssscccssssscssssscssssscssssssssssssssssscssssscssssssssscsssssccsssscccsssssssssscccsssssccsssssssssscccssscccssscssssscsssscssscsssssscs" />
  </g>
  <path
     style="fill:none;stroke:#4285f4;stroke-width:8.07556;stroke-linecap:butt;stroke-linejoin:miter;stroke-miterlimit:4;stroke-dasharray:none;stroke-opacity:1"
     d="M 50.274625,29.877686 C 42.71377,15.647101 30.805055,12.039009 21.357155,20.425648 c -8.247929,10.239933 -6.259578,17.358505 1.060367,23.708965 6.620097,5.743315 8.04678,4.646177 -0.164264,11.510728 -5.251556,4.611712 -7.212646,9.298113 -5.454619,16.187904 2.333608,7.776709 9.400334,11.98065 15.85215,11.265839 4.512138,-0.499912 7.400377,-0.76236 12.079433,-6.176588 2.350047,-4.055599 4.804586,-9.365526 9.147344,-10.384186 7.686684,-1.71776 9.674227,-5.116835 12.510686,-10.921022 2.835848,-8.312954 8.68041,-8.95284 12.179749,-12.185843 5.676133,-5.882628 4.400485,-5.350201 5.449602,-12.385607 l 0.04155,2.678149"
     id="path266"
     sodipodi:nodetypes="ccsccscccccc"
     inkscape:export-xdpi="96"
     inkscape:export-ydpi="96" />
  <ellipse
     style="fill:#ffffff;fill-opacity:1;stroke:#000000;stroke-width:2.32796;stroke-miterlimit:4;stroke-dasharray:none;stroke-opacity:1"
     id="path1105"
     cx="49.583744"
     cy="30.285824"
     rx="5.9960213"
     ry="6.1752892"
     inkscape:export-xdpi="96"
     inkscape:export-ydpi="96" />
  <ellipse
     style="fill:#8bbe33;fill-opacity:1;stroke:#000000;stroke-width:2.32796;stroke-miterlimit:4;stroke-dasharray:none;stroke-opacity:1"
     id="path1105-7"
     cx="83.129807"
     cy="32.988445"
     rx="5.9960213"
     ry="6.1752892"
     inkscape:export-xdpi="96"
     inkscape:export-ydpi="96" />
  <g
     id="g1136"
     transform="matrix(1.0105688,0,0,1.0242622,-89.610153,-21.135708)"
     inkscape:export-xdpi="96"
     inkscape:export-ydpi="96">
    <path
       style="fill:#fa1505;stroke-width:0.264583"
       d="m 169.34011,51.243731 c -4.08959,-5.015736 -4.91715,-7.556854 -3.29067,-10.104325 0.8636,-1.352606 1.70849,-2.05762 3.02067,-2.520587 1.3734,-0.484562 2.1386,-0.507354 3.4855,-0.103814 2.30083,0.689346 3.94818,2.888702 3.94818,5.271161 -0.49515,3.617161 -2.55018,5.28927 -4.264,7.651746 -0.30969,0.434912 -1.14916,1.591757 -1.2536,1.591757 -0.10445,0 -0.84519,-0.803672 -1.64608,-1.785938 z"
       id="path1138"
       sodipodi:nodetypes="ssssccss" />
  </g>
  <ellipse
     style="fill:#ffffff;fill-opacity:1;stroke:none;stroke-width:0.75073;stroke-miterlimit:4;stroke-dasharray:none;stroke-opacity:1"
     id="path1105-6"
     cx="83.086281"
     cy="23.939875"
     rx="1.9336357"
     ry="1.991447"
     inkscape:export-xdpi="96"
     inkscape:export-ydpi="96" />
</svg>
