<?xml version='1.0' encoding='ASCII' standalone='yes'?>
<svg xmlns="http://www.w3.org/2000/svg" xmlns:xlink="http://www.w3.org/1999/xlink" version="1.1" width="1477.611168184265px" viewBox="0 0 1477.611168184265 1477.611168184265" height="1477.611168184265px">
  <g>
    <g transform="translate(195.73111437987518, 237.90258806149632) scale(1 1)  rotate(45.000000 543.074470 500.902996)"><g>
<path d="M 495.1155425902689 896.5363554358482 459.23260431195376 856.9184527751058 416.475641614903 829.185824113898 384.8392049079994 794.0954450285062 338.34001270119916 770.3244705544785 318.0098864281317 762.9667761102319 313.5776004130021 756.7410302720964 309.4638020156708 748.2513703862205 305.5092474273115 739.1957249362022 301.660855378228 729.0081136468798 293.61904302740004 720.5184293538332 283.9317113176512 711.4627578770742 273.12967294541886 701.8410976156592 261.79682187674916 692.7854086076841 252.82608730715583 683.7297110958025 244.30654352952843 674.108023179695 236.0524061001197 665.0523081365973 227.95751247965381 655.9965845933184 222.46360107164946 650.3367530619726 218.21709950023796 645.808885447681 214.793357608316 642.4129833430052 211.76772523872205 639.5830640066415 210.9184249244281 636.1871597133577 211.39615635119844 632.791254222393 212.77626936187153 629.961332064122 214.58103252973524 627.1314090760425 221.11002869578078 618.6416351366788 230.0011413608736 608.4538965439424 235.25618705546367 602.7940371213481 241.12166735099163 597.1341743813828 247.35871653395589 590.9083215259016 253.7815501607256 584.682464659214 261.1863872758404 575.6266656760126 269.20165899186395 565.4388816598803 277.6150402301864 554.1191090270877 286.24074654708966 542.2333334665745 295.6626719086198 533.7434848174453 305.64195060142083 525.8196193315089 316.01933881654986 518.4617384122685 326.55597084059264 511.6698433533311 337.703037465486 503.74595974199474 349.30129488234525 496.3880619900301 361.2180399170902 489.0301586249843 373.2674881259736 481.1062564179301 384.1491484026774 473.1823476999998 394.7388616963581 464.69243828300387 405.0897092766245 456.2025213902816 415.3343943176151 447.71259703300893 449.1206224450725 405.8288608370349 457.2155160655384 397.90489029325545 467.32749793244875 378.0949354516342 483.4642039037426 362.81294249743223 493.84159211887163 358.2849399363622 505.25406509201275 355.45493725501 511.7299799883622 349.2289284346625 516.1622660035209 341.8709128331393 521.1784459847258 333.380887853913 527.1500888195005 322.06084292940795 533.7587068900175 309.6087781712413 540.6592719435284 296.59069328103215 546.9759430309641 289.23263753112406 553.3456953880668 283.0065859723836 559.7950696496118 277.9125407980755 566.2444439112151 273.3844983885065 562.3960518621025 259.8003584071994 546.3124271604465 227.53794927801937 546.3124271604465 227.53794927801937 504.93557747412706 195.8414422571659 479.9873807421827 172.0689936466515 475.7408791707712 161.88078345358372 475.3162290136097 152.25857505947351 474.49346933414927 148.29648645687848 473.8034128287982 144.9004092225805 473.219518862752 142.07034394238144 472.66216553148115 138.67426451295614 471.3616744252795 137.5422377679497 469.82231760563445 136.97622435167432 468.09717634227127 136.97622435167432 466.29241317440756 137.5422377679497 465.124625242257 136.41021089348942 464.11608111904934 135.27818388678133 463.240240169951 133.58014312479645 462.41748049049056 131.31608831323683 461.67434271550155 130.18406070955098 461.01082684498397 129.0520329689607 460.4003922441043 128.48601905070245 459.8164982779999 127.35399111267179 454.26950560038676 120.56182069610804 446.6523434066912 110.9395710863173 437.6550682022935 99.61926513630897 427.96773649251554 87.73292959760875 422.8188533372013 82.63878131378442 418.83775811403757 79.24268096126616 415.65288193544257 76.97861339338124 412.8395746444294 75.2805623728782 408.6196137078514 69.05437272973359 404.18732769272174 61.69614342972636 399.64887913825805 53.20587187446654 395.03080867935205 44.715592849068344 388.8733814008301 35.65928698796779 381.97281634729006 26.036952689290047 374.5945198670088 15.848588268272579 366.97735767331324 5.094191927462816 361.69577134388965 1.1320428848266602 357.10424151981715 0.0 352.990443122515 0.0 349.1420510734315 1.1320428848266602 343.5154364913469 5.660213085822761 337.4110904824629 13.018485128879547 331.0147974905267 21.508792051114142 324.43272005487233 30.56511120032519 311.37472772281035 36.79132568463683 297.97170713808737 39.6214218493551 294.0967744541704 43.01753614936024 291.3896297024039 46.9796679886058 289.45216336048907 50.941798199899495 287.8862659060105 55.46994501911104 282.63122021142044 59.99808971956372 276.23492721948423 65.09224995970726 269.0689558177546 70.75242485105991 261.5314155285305 75.84657941292971 254.4716066660767 83.77081449702382 247.19947272507125 92.82707519549876 239.79463560992735 103.01535831950605 232.33671722517465 112.63761583063751 225.0645832841401 122.25986374728382 217.81898997796816 132.4481157856062 210.573396671738 142.07034394238144 203.35434400034137 152.25857505947351 194.72863768343814 161.88078345358372 185.51903740048874 170.9369708262384 175.91132759518223 180.55916059296578 166.14437398096197 189.6153304297477 156.48358290607575 199.23750156257302 146.690088657022 208.8596631018445 136.7904318686633 217.91580637264997 126.8642344455584 227.53794927801937 94.13963171094656 267.72444238886237 58.28323406743584 307.34476466756314 43.55318174164859 315.83481255732477 30.33594560070196 318.6648268615827 15.924380892742192 336.7768987445161 1.35357237586868 361.1149417841807 0.0 373.00094049051404 1.1412472973461263 385.4529234264046 3.9014733187214006 397.90489029325545 7.484459019586211 410.92283846996725 19.98509802040644 431.8647182350978 36.811860497051384 451.6745626628399 46.15416395413922 460.1644835351035 56.345767725521 467.5224089194089 67.12126546291984 474.8803286869079 78.16216954853735 482.238242845051 89.57464252167847 483.37022913992405 101.41176565195201 481.6722496440634 113.56737640008214 478.2762897666544 125.88223095715512 474.31433505937457 134.3486934651155 472.0503602102399 141.3819616927649 469.2203909019008 147.433226432011 466.39042076282203 153.00675974448677 462.9944555014372 159.32343083189335 459.0324945189059 165.45431747561088 453.938542294316 171.45250094521907 448.84458738192916 177.37106251035584 443.1846343195066 188.01385707367444 439.78866088576615 197.94005449683755 439.22266520373523 201.20455257984577 429.60073342639953 203.67283161822706 416.5828104550019 205.63683859500452 401.30087846610695 207.3354392235633 384.8869245527312 215.5099547484715 375.2649385826662 226.1527493118192 367.3409429322928 238.38798196442076 360.54894147999585 251.47251493128715 353.7569352472201 267.39689582400024 331.6828819634393 280.48142879089573 306.21275771968067 286.7450186087226 297.7227013632655 292.63703953902586 289.7986420178786 298.23711348627694 283.0065859723836 303.6779436246434 276.7805303968489 312.7017594639037 271.6864819377661 320.55778737098444 271.1204763855785 329.3692781316058 271.1204763855785 340.09169459939585 271.6864819377661 352.11460217341664 272.2524874554947 364.7744849831506 273.3844983885065 372.89591923845 271.1204763855785 374.5679792322044 267.15843660291284 374.5945198670088 262.06438306253403 373.5859757438011 254.70630097948015 371.91391575007583 246.78220630437136 369.89682750363136 237.72609013225883 371.91391575007583 230.9339974252507 375.2845763723599 224.70790824107826 379.5310779437423 219.0478236824274 384.2553109419532 212.82172682788223 391.44782297848724 203.19956924021244 400.1266105650284 192.44538175780326 409.8404829096107 180.55916059296578 420.0586273157969 168.1069131884724 429.42747140768915 157.91869880631566 438.98209994332865 148.29648645687848 448.6694316530775 138.67426451295614 458.3833039976889 129.0520329689607 469.3180455440015 120.56182069610804 480.81014042161405 112.0716009484604 492.6738041867211 104.14738911110908 504.7232523955463 96.78918657731265 513.0570117294556 90.56301081739366 519.9841174178 85.46886402741075 526.0353821570461 80.37471454404294 531.6089154694637 75.84657941292971 540.2877030560339 67.92233782075346 549.8157909568399 59.43207174446434 559.8746915540833 50.375779698602855 570.2255391343788 40.75346008129418 581.531849568215 29.433071768842638 591.2191812779929 26.036952689290047 602.7643574252434 24.338892699219286 608.2051875635807 26.036952689290047 613.7256396063894 29.999091503210366 619.2991729188943 34.52724815439433 624.8727062313119 39.055402679368854 633.1268436607497 46.9796679886058 642.495687752642 56.03596322517842 652.6342102543567 66.22428520116955 663.144301643566 76.97861339338124 673.5482304934994 84.90284754801542 684.2971875960648 92.82707519549876 695.3115510468779 99.61926513630897 706.432077037025 106.97746551595628 716.0663274770777 116.0337044261396 725.2493871252809 126.22196304332465 734.0874185207649 136.41021089348942 742.7396654724726 147.73047367017716 752.8516473393538 156.22066203132272 763.3351980937587 164.71084292046726 774.137236465991 172.6350050130859 785.0719780123036 180.55916059296578 795.0777973399381 189.04932006075978 804.8447509541875 197.5394720621407 814.4524607594358 206.59562595468014 824.0070892950753 215.08576251380146 836.9058378181944 238.8581051165238 846.7524133369152 266.02642493788153 851.9543777618674 275.64851986058056 856.9440171082388 283.5725908251479 861.800953280559 290.36464647203684 866.5782675483788 297.15669733751565 871.4352037206409 300.5527209760621 876.2921398929611 302.25073234643787 881.0959947955853 302.8167360732332 885.8998496982385 302.8167360732332 894.4459341106704 308.4767714869231 904.5048347079137 315.83481255732477 915.5988200631982 324.890855406411 927.2236181149201 333.94688975345343 935.6104587184091 343.56891692988575 943.2010802772711 354.3229359490797 950.2343485049205 365.6429430153221 957.0022103843221 376.9629368055612 960.0809240236122 383.1889277268201 961.3814151298429 387.1509198565036 961.4344963994808 390.546911817044 960.9036837030726 392.8109057890251 974.2536230181286 412.054833130911 994.1060178644257 444.3166251964867 994.1060178644257 444.3166251964867 1044.0820332328149 469.2203909019008 1081.8493565834651 474.31433505937457 1085.2730984754162 479.4082765253261 1086.1489394245145 486.7661872282624 1085.3527203798876 494.690084785223 1083.7072010209667 503.17996780760586 1082.4332505495404 511.1038518836722 1080.3896216682915 519.5937204575166 1077.8682613602723 527.517591056414 1075.108035338897 536.0074451854452 1072.0027810647734 542.2333334665745 1068.49941726838 546.7612496921793 1064.730647123768 550.7231746464968 1060.8291738050466 554.6850979737937 1053.6897430381214 563.1749281985685 1045.0640367212181 573.9287024214864 1035.4563269159116 585.2484518131241 1025.3178044141969 597.7001608042046 1016.8248012714321 609.0198823036626 1008.4910419375519 620.9055755818263 1000.2634451429476 632.791254222393 992.0889296180394 644.6769182132557 970.0602027163841 659.9584646886215 945.5101155067678 670.7121310308576 935.9820276059327 680.3338223379105 927.3563212890294 690.5214850259945 919.287968303368 701.8410976156592 911.5381029355631 713.7266765451059 902.3019620177802 724.4802829567343 892.7473334821116 734.6678990274668 883.0069205027248 744.8555043395609 873.1603449840331 755.0430988939479 865.3308577117859 758.438961353153 858.2710488493321 759.0049383156002 851.6889714136487 757.8729843609035 845.3457596913795 755.6090760529041 831.4650076798862 773.1543515399098 803.8892881006177 802.5850645741448 803.8892881006177 802.5850645741448 767.5816996651411 844.4670783374459 731.6987613867968 886.3489102888852 691.9143497897603 927.0986263314262 658.7385562632408 969.5460641887039 617.5209503858641 999.542140994221 608.7094596251845 998.9761781422421 600.5084034654137 994.4484741464257 592.7319974627753 987.6569141689688 585.1679165387468 979.7334214830771 579.4351394173573 975.7716727061197 574.6843657843419 972.375886740163 570.5971080218733 968.9800995755941 566.8283378772612 965.5843112245202 562.3960518621025 962.1885216701776 558.0168471166398 958.2267656847835 553.690723640786 954.8309735478833 549.3646001649031 951.4351802086458 544.5872858970542 948.0393856810406 539.5976465506828 943.5116577781737 534.5018446650065 939.5498941233382 529.3529615096922 935.5881288424134 525.1330005731143 930.4944282332435 521.2580678891973 924.8347577331588 517.6220009186654 919.1750839110464 514.0655558526341 913.515406774357 511.67689871872426 905.5918532023206 511.67689871872426 898.234261916019 511.94230506694294 894.8384486557916 512.5527396678226 892.0086033623666 513.428580616921 888.612787919119 514.4105841053242 885.7829408003017 519.6125485302764 877.2933944603428 526.7254386623681 867.1059289975092 535.1122792658862 855.2205390240997 544.109554470313 842.769162398763 554.0092112586135 833.7136056656018 564.9704934397596 825.7899865545332 576.5952914914815 817.8663609316573 588.5651177958644 810.5087027475238 597.4827710958198 800.3211667565629 605.4715021770098 790.1336200172082 612.8497986572911 778.8141110166907 619.9361481545784 767.4945887383074 626.013953528658 759.5709152417257 631.3220804929151 753.3451672131196 636.1259353955393 747.685392790474 640.7174652196118 742.5915929768234 660.5433194310754 731.8380067516118 677.2904600032489 726.7441985690966 681.4042584005801 719.952450139448 685.4915161630488 711.4627578770742 689.552233290684 701.2751173023134 693.5864097834856 690.5214850259945 693.5864097834856 690.5214850259945 737.6173229519336 640.1490479428321 775.1988618588366 600.5300924209878 802.5887969943578 575.6266656760126 811.6126128335891 559.7789970058948 831.1996013316675 529.7815528903157 833.2697708477208 522.4236749894917 831.7834952977137 518.4617384122685 830.6953292700637 515.6317827180028 828.9967286415049 513.9338089060038 828.4128346754005 513.367817569524 827.8820219789923 512.2358347903937 827.3777499173884 511.6698433533311 826.8734778557846 511.1038518836722 820.2383191504923 504.311951642856 811.0021782326803 495.2560772188008 800.093977321143 483.9362222356722 788.3099354605365 472.61635397095233 778.7022256552591 462.9944555014372 769.1210564847861 453.938542294316 759.5398873143131 444.3166251964867 749.9852587786445 434.694698500447 741.9699870626209 427.9027444673702 734.6447718519776 422.24277912359685 727.7176661636331 417.71480445563793 721.0294261887029 413.18682765960693 715.4028116065601 411.4888358125463 710.4662535298266 412.054833130911 705.9543456101965 413.75282487552613 701.6813034039806 415.4508163239807 681.05923014789 429.03473713621497 655.3413550061232 447.71259703300893 645.7071045660123 455.63652666658163 636.8690731705283 463.5604497967288 628.5883951063151 472.0503602102399 620.5465827554581 479.97426985483617 615.3180776956724 489.59615139011294 615.689646583196 496.95405432302505 610.9388729501516 504.311951642856 604.7283644019917 512.8018261957914 597.5623930002912 522.4236749894917 589.8656089021242 532.0455141887069 581.5053089334106 541.6673437906429 572.3222492852656 552.4211419885978 562.6083769406832 563.1749281985685 552.6556388827448 573.9287024214864 543.2602541560191 584.1164774727076 533.8648694292642 594.3042417652905 524.4429440677341 605.0579812889919 515.0210187062039 615.2457234663889 506.63417810268584 625.4334548870102 498.6719876563002 636.1871597133577 491.0017441929667 646.9408525535837 483.4642039037426 657.128550503403 473.8034128287982 666.7502553537488 463.37294334406033 675.8059688033536 452.43820179771865 684.861673751846 441.2645945379918 693.9173701982945 400.498179452552 726.1782197132707 364.4294567304896 766.9286122769117 321.61941276380094 800.3211667565629 285.92225892926217 838.8073573745787 249.32272351076244 876.7274244399741 232.1243921465939 894.8384486557916 231.0627667537192 897.1023242939264 231.35471373677137 899.366199400276 232.5490423037554 900.4981367532164 234.19456166264717 902.1960425367579 237.69792545906967 907.2897580852732 242.4752397268603 914.6473424667493 248.0753136741696 922.5708886059001 254.1000377785822 931.0603950992227 261.9560656856338 939.5498941233382 271.00642215969856 948.0393856810406 280.87953831322375 957.6608004113659 291.15076398904785 967.2822055490687 301.47507093450986 975.205708457157 312.2240280370752 982.563241045922 323.2914727575262 989.3548046099022 334.5181612869201 996.7123264074326 351.39800503326114 1001.2400293434039 366.048435454577 1001.8059920612723 376.18695795629174 999.542140994221 383.72449824551586 995.0144372619689 391.2354978999356 988.7888411618769 400.02044802578166 980.2993854647502 409.6812391006679 970.6779933078215 419.7401396979694 960.4906264487654 427.5430863354122 950.8692145403475 434.8683015460556 940.1158604640514 441.84848850403796 928.7965274294838 448.6428910182731 918.0431487504393 454.93302147090435 906.7237898241729 460.8515830360411 894.8384486557916 466.4781976181839 882.9530928488821 471.99864966096357 871.6336927544326 471.99864966096357 871.6336927544326" style="fill:black;stroke:none"/>
</g>
</g>
  </g>
</svg>
